<svg xmlns="http://www.w3.org/2000/svg" viewBox="0 0 1024 1024">
   <circle cx="512" cy="512" r="512" style="fill:#0073a8"/>
   <path d="M551.54 197c-12.306.049-24.662.621-37.061 1.67-42.475 3.592-83.673 12.858-123.71 27.312-61.424 22.177-117.19 54.487-168.33 94.9-20.198 15.96-39.498 32.943-57.256 51.635-2.714 2.858-2.832 5.18-.715 8.492 12.942 20.246 25.684 40.622 38.531 60.93 3.32 5.245 6.773 5.802 11.79 2.084 3.003-2.225 4.502-5.333 5.439-8.865 1.425-5.378 1.662-11.057-.284-15.967-4.067-10.255-.116-18.128 5.762-25.855.558-.736 1.061-1.513 1.588-2.273 16.578-23.911 37.467-43.635 60.051-61.693 1.833-1.466 3.703-4.538 6-3.444 2.317 1.103 1.089 4.477 1.09 6.83.056 151.74.056 303.48.076 455.21 0 9.927-.174 8.192-7.799 10.86-7.412 2.595-14.896 5.166-20.594 11-3.318 3.396-4.364 7.272-2.566 11.847 1.789 4.554 5.078 5.887 9.814 5.842 19.41-.185 38.82-.076 58.23-.082 19.873 0 39.745.025 59.617-.014 5.792-.01 9.002-3.216 9.432-8.968.366-4.905-2.23-8.174-5.824-10.873-6.124-4.6-13.152-7.415-20.385-9.602-3.78-1.144-5.1-3.222-5.092-7.004.073-33.583.02-67.165.068-100.75.007-5.079.688-5.499 5.42-3.879 12.242 4.193 24.525 8.255 37.01 11.678 63.993 17.543 128.75 26.443 195.11 17.307 52.195-7.186 100.91-23.868 144.65-53.74 42.022-28.7 73.747-65.938 92.71-113.52 15.363-38.55 19.094-78.523 13.67-119.39-7.002-52.764-28.839-98.723-65.163-137.62-36.382-38.957-81.167-64.185-131.97-79.104-35.908-10.545-72.386-15.11-109.3-14.965zm-7.928 39.123c62.835.188 118.64 19.016 163.08 65.107 31.876 33.062 50.116 73.157 57.262 118.33 6.54 41.335 4.615 82.143-10.877 121.39-23.987 60.773-68.119 100.73-129.45 121.99-32.002 11.098-65.082 13.962-98.832 12.379-31.633-1.484-62.907-5.001-93.715-12.361-18.916-4.52-37.28-10.669-55.162-18.369-5.069-2.183-6.653-5.25-6.638-10.576.15-56.836.093-113.67.097-170.51.003-27.263-.065-54.528.02-81.791.093-29.713.394-59.424.428-89.137.005-4.008 1.346-6.517 4.693-8.693 25.323-16.467 53.035-27.342 81.996-35.307 28.5-7.838 57.544-12.544 87.096-12.455z" style="fill:#fff;stroke-width:.78459"/>
</svg>
